<svg width="20" height="21" viewBox="0 0 20 21" fill="none" xmlns="http://www.w3.org/2000/svg">
<g clip-path="url(#clip0_66_72)">
<path d="M15.2075 11.675C14.5525 13.0025 13.665 14.325 12.7575 15.5125C11.8957 16.6313 10.9752 17.7036 10 18.725C9.02477 17.7036 8.10431 16.6313 7.2425 15.5125C6.335 14.325 5.4475 13.0025 4.7925 11.675C4.13 10.3337 3.75 9.0775 3.75 8C3.75 6.3424 4.40848 4.75269 5.58058 3.58058C6.75269 2.40848 8.3424 1.75 10 1.75C11.6576 1.75 13.2473 2.40848 14.4194 3.58058C15.5915 4.75269 16.25 6.3424 16.25 8C16.25 9.0775 15.8688 10.3337 15.2075 11.675ZM10 20.5C10 20.5 17.5 13.3925 17.5 8C17.5 6.01088 16.7098 4.10322 15.3033 2.6967C13.8968 1.29018 11.9891 0.5 10 0.5C8.01088 0.5 6.10322 1.29018 4.6967 2.6967C3.29018 4.10322 2.5 6.01088 2.5 8C2.5 13.3925 10 20.5 10 20.5Z" fill="black"/>
<path d="M10 10.5C9.33696 10.5 8.70107 10.2366 8.23223 9.76777C7.76339 9.29893 7.5 8.66304 7.5 8C7.5 7.33696 7.76339 6.70107 8.23223 6.23223C8.70107 5.76339 9.33696 5.5 10 5.5C10.663 5.5 11.2989 5.76339 11.7678 6.23223C12.2366 6.70107 12.5 7.33696 12.5 8C12.5 8.66304 12.2366 9.29893 11.7678 9.76777C11.2989 10.2366 10.663 10.5 10 10.5ZM10 11.75C10.9946 11.75 11.9484 11.3549 12.6517 10.6517C13.3549 9.94839 13.75 8.99456 13.75 8C13.75 7.00544 13.3549 6.05161 12.6517 5.34835C11.9484 4.64509 10.9946 4.25 10 4.25C9.00544 4.25 8.05161 4.64509 7.34835 5.34835C6.64509 6.05161 6.25 7.00544 6.25 8C6.25 8.99456 6.64509 9.94839 7.34835 10.6517C8.05161 11.3549 9.00544 11.75 10 11.75Z" fill="black"/>
</g>
<defs>
<clipPath id="clip0_66_72">
<rect width="20" height="20" fill="white" transform="translate(0 0.5)"/>
</clipPath>
</defs>
</svg>
